<svg width="260" height="27" viewBox="0 0 260 27" fill="none" xmlns="http://www.w3.org/2000/svg">
<path d="M10.8663 5.60092C9.96957 5.01971 9.49483 4.8612 8.91459 4.8612C7.49036 4.8612 6.54088 5.97079 6.54088 7.60875V9.5109H10.8136V14.1078H6.48813V26.4189H1.47697V14.0021H0V9.40523H1.47697V7.3974C1.47697 4.49133 2.00446 2.85337 3.21769 1.69094C4.27267 0.634192 5.90789 0.0529785 7.59586 0.0529785C8.91459 0.0529785 9.86407 0.264329 10.8663 0.792705V5.60092Z" fill="black"/>
<path d="M21.5219 14.1605C21.6801 14.1077 21.7856 14.1077 21.9439 14.1077C23.8428 14.1077 25.5308 15.8513 25.5308 17.9648C25.5308 20.2369 23.9483 22.0333 21.9439 22.0333C19.8866 22.0333 18.5152 20.5539 18.5152 18.2819C18.4624 16.1155 19.7811 14.3719 21.5219 14.1605ZM25.6363 26.3132H30.6474V9.458H25.6363V11.7829C23.7901 9.82786 22.4186 9.08813 20.5724 9.08813C16.458 9.08813 13.1348 13.051 13.1348 17.8592C13.1348 22.7202 16.247 26.6302 20.2559 26.6302C22.5241 26.6302 23.8956 25.7848 25.5835 23.4071H25.689V26.3132H25.6363Z" fill="black"/>
<path d="M44.6262 13.8964C43.5712 12.8396 42.78 12.4169 41.8833 12.4169C41.0393 12.4169 40.3535 12.9453 40.3535 13.6322C40.3535 14.6889 40.7755 15.0588 42.991 15.7457C43.202 15.8513 43.4657 15.9042 43.8877 16.0627C44.679 16.3797 45.3119 16.6439 45.9977 17.0666C47.6857 18.0177 48.4769 19.3915 48.4769 21.3465C48.4769 24.2525 45.4702 26.6302 41.8305 26.6302C40.1425 26.6302 38.4546 25.9962 37.0304 24.8337C36.2391 24.1997 35.8171 23.7241 34.9731 22.4032L39.0348 20.5539C39.9843 22.1919 40.8283 22.9316 41.8833 22.9316C42.78 22.9316 43.624 22.2447 43.624 21.505C43.624 20.8181 43.202 20.3954 42.3053 20.0784C42.1998 20.0784 42.1998 20.0784 42.0943 20.0784C41.7778 19.867 41.6723 19.867 41.1448 19.6557C40.1953 19.3915 39.7733 19.233 38.7183 18.6517C36.5556 17.4365 35.6589 16.1684 35.6589 14.1605C35.6589 11.1488 38.3491 9.08813 42.1998 9.08813C44.468 9.08813 46.1559 9.82786 48.0549 11.7829L44.6262 13.8964Z" fill="black"/>
<path d="M58.288 0.105713V11.413C60.2398 9.72215 61.6112 9.14094 63.5629 9.14094C67.0971 9.14094 69.2071 11.8357 69.2071 16.3797V26.3132H64.1432V17.2779C64.1432 15.1116 62.8772 13.4208 61.242 13.4208C59.1848 13.4208 58.288 15.0587 58.288 18.7045V26.3132H53.1714V0.105713H58.288Z" fill="black"/>
<path d="M79.3351 9.45796V26.3132H74.3239V9.45796H79.3351ZM79.9153 3.22313C79.9153 4.96677 78.4911 6.34055 76.8031 6.34055C75.0624 6.34055 73.6909 4.91393 73.6909 3.22313C73.6909 1.47949 75.1151 0.105713 76.8031 0.105713C78.4911 0.105713 79.9153 1.47949 79.9153 3.22313Z" fill="black"/>
<path d="M92.7861 13.685C94.7906 13.685 96.5313 15.64 96.5313 17.9648C96.5313 20.2369 94.7906 22.139 92.7861 22.139C90.6762 22.139 89.0409 20.2369 89.0409 17.7535C89.0409 15.5343 90.7289 13.685 92.7861 13.685ZM92.8916 9.08813C87.6695 9.08813 84.0298 12.6811 84.0298 17.912C84.0298 20.2369 85.032 22.7202 86.6145 24.3054C88.197 25.8905 90.2542 26.6831 92.8389 26.6831C97.7973 26.6831 101.437 22.9316 101.437 17.8592C101.437 12.8396 97.7445 9.08813 92.8916 9.08813Z" fill="black"/>
<path d="M111.195 11.4658C112.672 10.0392 114.782 9.03528 116.576 9.03528C119.846 9.03528 122.167 11.9942 122.167 16.0627V26.3132H117.05V16.8552C117.05 14.9531 115.837 13.4208 114.307 13.4208C112.461 13.4208 111.195 15.3229 111.195 17.9648V26.3132H106.184V9.45798H111.195V11.4658Z" fill="black"/>
<path d="M151.074 25.5206C149.069 26.4189 148.014 26.6831 146.801 26.6831C141.684 26.6831 137.886 22.9316 137.886 17.8592C137.886 12.7868 141.368 9.08813 146.221 9.08813C147.961 9.08813 149.491 9.458 151.126 10.2506V15.0059C149.808 14.3719 148.331 13.9492 147.117 13.9492C144.849 13.9492 143.372 15.4286 143.372 17.7007C143.372 19.9727 144.849 21.4521 147.065 21.4521C148.172 21.4521 149.069 21.2408 151.074 20.5011V25.5206Z" fill="black"/>
<path d="M161.148 0.0529785V26.2604H156.137V0.0529785H161.148Z" fill="black"/>
<path d="M171.382 9.40503V17.4892C171.382 19.814 172.701 21.6105 174.494 21.6105C176.393 21.6105 177.764 19.9197 177.764 17.6477V9.40503H182.881V19.2328C182.881 23.4598 179.294 26.5772 174.599 26.5772C169.588 26.5772 166.318 23.5127 166.318 18.8101V9.40503H171.382Z" fill="black"/>
<path d="M195.751 14.1076C195.91 14.0548 196.068 14.0548 196.226 14.0548C198.178 14.0548 199.813 15.8513 199.813 18.0705C199.813 20.3425 198.389 21.9804 196.437 21.9804C194.327 21.9804 192.745 20.2896 192.745 18.0176C192.745 15.8513 193.905 14.319 195.751 14.1076ZM187.628 0V26.2074H192.586V23.4599C194.591 25.6791 196.015 26.5245 197.914 26.5245C201.817 26.5245 205.141 22.5088 205.141 17.9119C205.141 12.998 201.765 9.03523 197.703 9.03523C195.751 9.03523 194.222 9.77495 192.586 11.6243V0H187.628Z" fill="black"/>
<path d="M239.111 1.21521L223.181 26.9999L218.75 24.1996L230.091 5.75924H219.33V1.21521H239.111Z" fill="black"/>
<path d="M250.242 5.70639C252.984 5.70639 254.725 8.82381 254.725 13.8434C254.725 18.5988 252.984 21.6633 250.136 21.6633C247.393 21.6633 245.6 18.5988 245.6 13.8962C245.652 8.77097 247.393 5.70639 250.242 5.70639ZM250.242 0.845337H250.083C244.228 0.845337 240.377 6.07626 240.377 14.0019C240.377 21.452 244.334 26.4716 250.242 26.4716C252.932 26.4716 255.516 25.1506 257.31 22.9314C259.156 20.6066 260 17.5948 260 13.315C260 5.91774 256.308 1.10952 250.242 0.845337Z" fill="black"/>
</svg>
